<?xml version="1.0" standalone="no"?>
<svg xmlns="http://www.w3.org/2000/svg" viewBox="0 0 97.672 112.781" width="97.672" height="112.781"><polygon fill="none" stroke="#6a8bff" stroke-width="3" points="96.172,28.94525 96.172,83.83575 48.836,111.281 1.5,83.83575 1.5,28.94525 48.836,1.5"></polygon><g fill="#5e24c3" color="#5e24c3" transform="translate(26.836 22.5) scale(0.8148149)"><svg width="54.0" height="50.0" x="0.0" y="0.0" viewBox="0 0 54 50"><g><g><path d="M39,40.1l4.3,7.9H9.7l18-32.6l-0.6-0.3l0.6,0.3l6.1-11.2L50.6,35H19.8v2H54L33.8,0l-7.9,14.5L6.3,50h40.4l-5.9-10.8    L39,40.1z M29.5,18.5l-1.8,1L35,32.7l1.8-1L29.5,18.5z M11.7,35H3.4L20.2,4.2l3.8,7l1.8-1L20.2,0L0,37h11.7V35z"></path></g></g></svg></g><path fill="#5e24c3" fill-rule="nonzero" d="M9.52 3.92L9.52 3.92L9.52 15.12Q9.52 17.00 8.33 18.02Q7.14 19.04 4.77 19.04Q2.41 19.04 1.20 18.02Q0 17.00 0 15.12L0 15.12L0 3.92Q0 2.04 1.19 1.02Q2.38 0 4.75 0Q7.11 0 8.32 1.02Q9.52 2.04 9.52 3.92ZM7.56 15.12L7.56 15.12L7.56 3.92Q7.56 1.68 4.76 1.68Q1.96 1.68 1.96 3.92L1.96 3.92L1.96 15.12Q1.96 17.36 4.76 17.36Q7.56 17.36 7.56 15.12ZM21.78 18.62L14.70 18.62L14.70 0.42L16.66 0.42L16.66 16.94L21.78 16.94L21.78 18.62Z" transform="translate(37.944, 71.241)"></path></svg>